<svg xmlns="http://www.w3.org/2000/svg" xmlns:xlink="http://www.w3.org/1999/xlink" preserveAspectRatio="xMidYMid" width="48" height="48" viewBox="0 0 48 48">
  <defs>
    <style>

      .cls-3 {
        fill: #75aee3;
        opacity: 0;
      }

      .cls-4 {
        fill: #0078e6;
      }
    </style>
  </defs>
  <g id="ic_accounting_servicessvg">
    <rect id="rect-1" class="cls-3" width="48" height="48"/>
    <path d="M28.000,4.000 C28.000,4.000 12.000,4.000 12.000,4.000 C9.790,4.000 8.020,5.790 8.020,8.000 C8.020,8.000 8.000,40.000 8.000,40.000 C8.000,42.210 9.770,44.000 11.980,44.000 C11.980,44.000 36.000,44.000 36.000,44.000 C38.210,44.000 40.000,42.210 40.000,40.000 C40.000,40.000 40.000,16.000 40.000,16.000 C40.000,16.000 28.000,4.000 28.000,4.000 ZM32.000,36.000 C32.000,36.000 16.000,36.000 16.000,36.000 C16.000,36.000 16.000,32.000 16.000,32.000 C16.000,32.000 32.000,32.000 32.000,32.000 C32.000,32.000 32.000,36.000 32.000,36.000 ZM32.000,28.000 C32.000,28.000 16.000,28.000 16.000,28.000 C16.000,28.000 16.000,24.000 16.000,24.000 C16.000,24.000 32.000,24.000 32.000,24.000 C32.000,24.000 32.000,28.000 32.000,28.000 ZM26.000,18.000 C26.000,18.000 26.000,7.000 26.000,7.000 C26.000,7.000 37.000,18.000 37.000,18.000 C37.000,18.000 26.000,18.000 26.000,18.000 Z" id="path-1" class="cls-4" fill-rule="evenodd"/>
  </g>
</svg>
