<svg xmlns="http://www.w3.org/2000/svg" xmlns:xlink="http://www.w3.org/1999/xlink" preserveAspectRatio="xMidYMid" width="24" height="24" viewBox="0 0 24 24">
  <defs>
    <style>

      .cls-3 {
        fill: #ffffff;
        opacity: 0;
      }

      .cls-4 {
        fill: #ffffff;
      }
    </style>
  </defs>
  <g id="ic_arrow_smallsvg">
    <rect id="rect-1" class="cls-3" width="24" height="24"/>
    <path d="M12.000,4.000 C12.000,4.000 10.585,5.415 10.585,5.415 C10.585,5.415 16.170,11.000 16.170,11.000 C16.170,11.000 4.000,11.000 4.000,11.000 C4.000,11.000 4.000,13.000 4.000,13.000 C4.000,13.000 16.170,13.000 16.170,13.000 C16.170,13.000 10.585,18.585 10.585,18.585 C10.585,18.585 12.000,20.000 12.000,20.000 C12.000,20.000 20.000,12.000 20.000,12.000 C20.000,12.000 12.000,4.000 12.000,4.000 Z" id="path-1" class="cls-4" fill-rule="evenodd"/>
  </g>
</svg>
