<svg xmlns="http://www.w3.org/2000/svg" xmlns:xlink="http://www.w3.org/1999/xlink" preserveAspectRatio="xMidYMid" width="48" height="48" viewBox="0 0 48 48">
  <defs>
    <style>

      .cls-3 {
        fill: #ffffff;
        opacity: 0;
      }

      .cls-4 {
        fill: #ffffff;
      }
    </style>
  </defs>
  <g id="ic_call_bigsvg">
    <rect id="rect-1" class="cls-3" width="48" height="48"/>
    <path d="M13.250,21.590 C16.130,27.250 20.760,31.880 26.430,34.760 C26.430,34.760 30.830,30.350 30.830,30.350 C31.380,29.800 32.170,29.640 32.860,29.860 C35.100,30.600 37.510,31.000 40.000,31.000 C41.110,31.000 42.000,31.890 42.000,33.000 C42.000,33.000 42.000,40.000 42.000,40.000 C42.000,41.110 41.110,42.000 40.000,42.000 C21.220,42.000 6.000,26.780 6.000,8.000 C6.000,6.890 6.900,6.000 8.000,6.000 C8.000,6.000 15.000,6.000 15.000,6.000 C16.110,6.000 17.000,6.890 17.000,8.000 C17.000,10.490 17.400,12.900 18.140,15.140 C18.360,15.830 18.200,16.620 17.650,17.170 C17.650,17.170 13.250,21.590 13.250,21.590 Z" id="path-1" class="cls-4" fill-rule="evenodd"/>
  </g>
</svg>
