<svg xmlns="http://www.w3.org/2000/svg" xmlns:xlink="http://www.w3.org/1999/xlink" preserveAspectRatio="xMidYMid" width="24" height="24" viewBox="0 0 24 24">
  <defs>
    <style>

      .cls-3 {
        fill: #c24949;
        fill-opacity: 0;
      }

      .cls-4 {
        fill: #999999;
      }
    </style>
  </defs>
  <g id="ic_close_graysvg">
    <rect id="rect-1" class="cls-3" width="24" height="24"/>
    <path d="M19.000,6.415 C19.000,6.415 17.585,5.000 17.585,5.000 C17.585,5.000 12.000,10.585 12.000,10.585 C12.000,10.585 6.415,5.000 6.415,5.000 C6.415,5.000 5.000,6.415 5.000,6.415 C5.000,6.415 10.585,12.000 10.585,12.000 C10.585,12.000 5.000,17.585 5.000,17.585 C5.000,17.585 6.415,19.000 6.415,19.000 C6.415,19.000 12.000,13.415 12.000,13.415 C12.000,13.415 17.585,19.000 17.585,19.000 C17.585,19.000 19.000,17.585 19.000,17.585 C19.000,17.585 13.415,12.000 13.415,12.000 C13.415,12.000 19.000,6.415 19.000,6.415 Z" id="path-1" class="cls-4" fill-rule="evenodd"/>
  </g>
</svg>
