<svg xmlns="http://www.w3.org/2000/svg" xmlns:xlink="http://www.w3.org/1999/xlink" preserveAspectRatio="xMidYMid" width="24" height="24" viewBox="0 0 24 24">
  <defs>
    <style>

      .cls-3 {
        fill: #ffffff;
        opacity: 0;
      }

      .cls-4 {
        fill: #ffffff;
      }
    </style>
  </defs>
  <g id="ic_call_white_smallsvg">
    <rect id="rect-1" class="cls-3" width="24" height="24"/>
    <path d="M6.625,10.795 C8.065,13.625 10.380,15.940 13.215,17.380 C13.215,17.380 15.415,15.175 15.415,15.175 C15.690,14.900 16.085,14.820 16.430,14.930 C17.550,15.300 18.755,15.500 20.000,15.500 C20.555,15.500 21.000,15.945 21.000,16.500 C21.000,16.500 21.000,20.000 21.000,20.000 C21.000,20.555 20.555,21.000 20.000,21.000 C10.610,21.000 3.000,13.390 3.000,4.000 C3.000,3.445 3.450,3.000 4.000,3.000 C4.000,3.000 7.500,3.000 7.500,3.000 C8.055,3.000 8.500,3.445 8.500,4.000 C8.500,5.245 8.700,6.450 9.070,7.570 C9.180,7.915 9.100,8.310 8.825,8.585 C8.825,8.585 6.625,10.795 6.625,10.795 Z" id="path-1" class="cls-4" fill-rule="evenodd"/>
  </g>
</svg>
