<svg xmlns="http://www.w3.org/2000/svg" xmlns:xlink="http://www.w3.org/1999/xlink" preserveAspectRatio="xMidYMid" width="24" height="24" viewBox="0 0 24 24">
  <defs>
    <style>

      .cls-3 {
        fill: #ffffff;
        opacity: 0;
      }

      .cls-4 {
        fill: #cccccc;
      }
    </style>
  </defs>
  <g id="ic_facebook_graysvg">
    <rect id="rect-1" class="cls-3" width="24" height="24"/>
    <path d="M20.006,3.000 C20.006,3.000 3.993,3.000 3.993,3.000 C3.445,3.000 3.000,3.445 3.000,3.993 C3.000,3.993 3.000,20.007 3.000,20.007 C3.000,20.555 3.445,21.000 3.993,21.000 C3.993,21.000 12.614,21.000 12.614,21.000 C12.614,21.000 12.614,14.029 12.614,14.029 C12.614,14.029 10.269,14.029 10.269,14.029 C10.269,14.029 10.269,11.313 10.269,11.313 C10.269,11.313 12.614,11.313 12.614,11.313 C12.614,11.313 12.614,9.309 12.614,9.309 C12.614,6.985 14.034,5.719 16.108,5.719 C17.102,5.719 17.956,5.793 18.204,5.826 C18.204,5.826 18.204,8.255 18.204,8.255 C18.204,8.255 16.766,8.256 16.766,8.256 C15.638,8.256 15.420,8.792 15.420,9.578 C15.420,9.578 15.420,11.313 15.420,11.313 C15.420,11.313 18.110,11.313 18.110,11.313 C18.110,11.313 17.759,14.029 17.759,14.029 C17.759,14.029 15.420,14.029 15.420,14.029 C15.420,14.029 15.420,21.000 15.420,21.000 C15.420,21.000 20.006,21.000 20.006,21.000 C20.555,21.000 21.000,20.555 21.000,20.007 C21.000,20.007 21.000,3.993 21.000,3.993 C21.000,3.445 20.555,3.000 20.006,3.000 Z" id="path-1" class="cls-4" fill-rule="evenodd"/>
  </g>
</svg>
