<svg xmlns="http://www.w3.org/2000/svg" xmlns:xlink="http://www.w3.org/1999/xlink" preserveAspectRatio="xMidYMid" width="24" height="24" viewBox="0 0 24 24">
  <defs>
    <style>

      .cls-3 {
        fill: #ffffff;
        fill-opacity: 0;
      }

      .cls-4 {
        fill: #0078e6;
      }
    </style>
  </defs>
  <g id="ic_menu_bluesvg">
    <rect id="rect-1" class="cls-3" width="24" height="24"/>
    <path d="M3.000,18.000 C3.000,18.000 21.000,18.000 21.000,18.000 C21.000,18.000 21.000,16.000 21.000,16.000 C21.000,16.000 3.000,16.000 3.000,16.000 C3.000,16.000 3.000,18.000 3.000,18.000 ZM3.000,13.000 C3.000,13.000 21.000,13.000 21.000,13.000 C21.000,13.000 21.000,11.000 21.000,11.000 C21.000,11.000 3.000,11.000 3.000,11.000 C3.000,11.000 3.000,13.000 3.000,13.000 ZM3.000,6.000 C3.000,6.000 3.000,8.000 3.000,8.000 C3.000,8.000 21.000,8.000 21.000,8.000 C21.000,8.000 21.000,6.000 21.000,6.000 C21.000,6.000 3.000,6.000 3.000,6.000 Z" id="path-1" class="cls-4" fill-rule="evenodd"/>
  </g>
</svg>
