<svg xmlns="http://www.w3.org/2000/svg" xmlns:xlink="http://www.w3.org/1999/xlink" preserveAspectRatio="xMidYMid" width="40" height="40" viewBox="0 0 40 40">
  <defs>
    <style>

      .cls-3 {
        fill: #0078e6;
      }

      .cls-4 {
        fill: #333333;
      }

      .cls-5 {
        fill: #ffffff;
      }
    </style>
  </defs>
  <g id="ic_mark_colorsvg">
    <path d="M30.000,10.000 C30.000,10.000 30.000,32.000 30.000,32.000 C30.000,32.000 26.071,31.991 26.071,31.991 C26.071,31.991 26.071,16.820 26.071,16.820 C26.071,16.820 3.015,39.990 3.015,39.990 C3.015,39.990 32.040,39.990 32.040,39.990 C36.436,39.990 40.000,36.409 40.000,31.991 C40.000,31.991 40.000,-0.007 40.000,-0.007 C40.000,-0.007 30.000,10.000 30.000,10.000 Z" id="path-1" class="cls-3" fill-rule="evenodd"/>
    <path d="M30.000,10.000 C30.000,10.000 40.000,-0.007 40.000,-0.007 C40.000,-0.007 8.000,-0.007 8.000,-0.007 C3.582,-0.007 -0.000,3.558 -0.000,7.956 C-0.000,7.956 -0.000,36.990 -0.000,36.990 C-0.000,36.990 23.172,13.927 23.172,13.927 C23.172,13.927 8.000,13.927 8.000,13.927 C8.000,13.927 8.000,10.000 8.000,10.000 C8.000,10.000 30.000,10.000 30.000,10.000 Z" id="path-2" class="cls-4" fill-rule="evenodd"/>
    <path d="M8.000,10.000 C8.000,10.000 8.000,13.999 8.000,13.999 C8.000,13.999 23.172,13.999 23.172,13.999 C23.172,13.999 -0.000,37.163 -0.000,37.163 C-0.000,37.163 -0.000,39.990 -0.000,39.990 C-0.000,39.990 2.828,39.990 2.828,39.990 C2.828,39.990 26.000,16.826 26.000,16.826 C26.000,16.826 26.000,31.993 26.000,31.993 C26.000,31.993 30.000,31.993 30.000,31.993 C30.000,31.993 30.000,10.000 30.000,10.000 C30.000,10.000 8.000,10.000 8.000,10.000 Z" id="path-3" class="cls-5" fill-rule="evenodd"/>
  </g>
</svg>
