<svg xmlns="http://www.w3.org/2000/svg" xmlns:xlink="http://www.w3.org/1999/xlink" preserveAspectRatio="xMidYMid" width="40" height="40" viewBox="0 0 40 40">
  <defs>
    <style>

      .cls-2 {
        fill: #ffffff;
      }
    </style>
  </defs>
  <path d="M32.040,39.990 C32.040,39.990 3.015,39.990 3.015,39.990 C3.015,39.990 26.071,16.820 26.071,16.820 C26.071,16.820 26.071,31.991 26.071,31.991 C26.071,31.991 30.000,32.000 30.000,32.000 C30.000,32.000 30.000,10.000 30.000,10.000 C30.000,10.000 8.000,10.000 8.000,10.000 C8.000,10.000 8.000,13.927 8.000,13.927 C8.000,13.927 23.172,13.927 23.172,13.927 C23.172,13.927 -0.000,36.990 -0.000,36.990 C-0.000,36.990 -0.000,7.956 -0.000,7.956 C-0.000,3.558 3.582,-0.007 8.000,-0.007 C8.000,-0.007 40.000,-0.007 40.000,-0.007 C40.000,-0.007 40.000,31.991 40.000,31.991 C40.000,36.409 36.436,39.990 32.040,39.990 Z" id="path-1" class="cls-2" fill-rule="evenodd"/>
</svg>
