<svg xmlns="http://www.w3.org/2000/svg" xmlns:xlink="http://www.w3.org/1999/xlink" preserveAspectRatio="xMidYMid" width="48" height="48" viewBox="0 0 48 48">
  <defs>
    <style>

      .cls-3 {
        fill: #75aee3;
        opacity: 0;
      }

      .cls-4 {
        fill: #0078e6;
      }
    </style>
  </defs>
  <g id="ic_raise_capitalsvg">
    <rect id="rect-1" class="cls-3" width="48" height="48"/>
    <path d="M38.000,6.000 C38.000,6.000 10.000,6.000 10.000,6.000 C7.790,6.000 6.000,7.790 6.000,10.000 C6.000,10.000 6.000,38.000 6.000,38.000 C6.000,40.210 7.790,42.000 10.000,42.000 C10.000,42.000 38.000,42.000 38.000,42.000 C40.210,42.000 42.000,40.210 42.000,38.000 C42.000,38.000 42.000,10.000 42.000,10.000 C42.000,7.790 40.210,6.000 38.000,6.000 ZM18.000,34.000 C18.000,34.000 14.000,34.000 14.000,34.000 C14.000,34.000 14.000,20.000 14.000,20.000 C14.000,20.000 18.000,20.000 18.000,20.000 C18.000,20.000 18.000,34.000 18.000,34.000 ZM26.000,34.000 C26.000,34.000 22.000,34.000 22.000,34.000 C22.000,34.000 22.000,14.000 22.000,14.000 C22.000,14.000 26.000,14.000 26.000,14.000 C26.000,14.000 26.000,34.000 26.000,34.000 ZM34.000,34.000 C34.000,34.000 30.000,34.000 30.000,34.000 C30.000,34.000 30.000,26.000 30.000,26.000 C30.000,26.000 34.000,26.000 34.000,26.000 C34.000,26.000 34.000,34.000 34.000,34.000 Z" id="path-1" class="cls-4" fill-rule="evenodd"/>
  </g>
</svg>
