<svg xmlns="http://www.w3.org/2000/svg" xmlns:xlink="http://www.w3.org/1999/xlink" preserveAspectRatio="xMidYMid" width="24" height="24" viewBox="0 0 24 24">
  <defs>
    <style>

      .cls-3 {
        fill: #ffffff;
        opacity: 0;
      }

      .cls-4 {
        fill: #666666;
      }
    </style>
  </defs>
  <g id="ic_twitter_darkgraysvg">
    <rect id="rect-1" class="cls-3" width="24" height="24"/>
    <path d="M21.000,6.683 C21.000,6.683 21.000,6.683 21.000,6.683 C21.000,6.683 21.000,6.683 21.000,6.683 M15.462,4.966 C13.422,4.966 11.769,6.605 11.769,8.628 C11.769,8.915 11.802,9.195 11.865,9.463 C8.796,9.310 6.074,7.852 4.253,5.636 C3.935,6.177 3.753,6.806 3.753,7.477 C3.753,8.748 4.405,9.869 5.396,10.526 C4.791,10.507 4.221,10.342 3.723,10.068 C3.723,10.068 3.723,10.114 3.723,10.114 C3.723,11.889 4.996,13.369 6.685,13.705 C6.375,13.789 6.049,13.834 5.712,13.834 C5.474,13.834 5.243,13.811 5.017,13.768 C5.487,15.223 6.851,16.282 8.467,16.312 C7.203,17.294 5.611,17.879 3.881,17.879 C3.583,17.879 3.289,17.862 3.000,17.828 C4.634,18.868 6.575,19.474 8.661,19.474 C15.453,19.474 19.168,13.893 19.168,9.053 C19.168,8.894 19.164,8.736 19.157,8.579 C19.879,8.063 20.505,7.418 21.000,6.683 C20.338,6.974 19.626,7.171 18.879,7.260 C19.641,6.807 20.227,6.089 20.503,5.233 C19.789,5.653 18.999,5.958 18.158,6.122 C17.484,5.410 16.524,4.966 15.462,4.966 " id="path-1" class="cls-4" fill-rule="evenodd"/>
  </g>
</svg>
