<svg xmlns="http://www.w3.org/2000/svg" xmlns:xlink="http://www.w3.org/1999/xlink" preserveAspectRatio="xMidYMid" width="200" height="40" viewBox="0 0 200 40">
  <defs>
    <style>

      .cls-4 {
        fill: #0078e6;
      }

      .cls-5 {
        fill: #333333;
      }

      .cls-6 {
        fill: #ffffff;
      }
    </style>
  </defs>
  <g id="logo_rcsvg">
    <g id="mark">
      <path d="M30.000,10.000 C30.000,10.000 30.000,32.000 30.000,32.000 C30.000,32.000 26.071,31.991 26.071,31.991 C26.071,31.991 26.071,16.820 26.071,16.820 C26.071,16.820 3.015,39.990 3.015,39.990 C3.015,39.990 32.040,39.990 32.040,39.990 C36.436,39.990 40.000,36.409 40.000,31.991 C40.000,31.991 40.000,-0.007 40.000,-0.007 C40.000,-0.007 30.000,10.000 30.000,10.000 Z" id="path-1" class="cls-4" fill-rule="evenodd"/>
      <path d="M30.000,10.000 C30.000,10.000 40.000,-0.007 40.000,-0.007 C40.000,-0.007 8.000,-0.007 8.000,-0.007 C3.582,-0.007 -0.000,3.558 -0.000,7.956 C-0.000,7.956 -0.000,36.990 -0.000,36.990 C-0.000,36.990 23.172,13.927 23.172,13.927 C23.172,13.927 8.000,13.927 8.000,13.927 C8.000,13.927 8.000,10.000 8.000,10.000 C8.000,10.000 30.000,10.000 30.000,10.000 Z" id="path-2" class="cls-5" fill-rule="evenodd"/>
      <path d="M8.000,10.000 C8.000,10.000 8.000,13.999 8.000,13.999 C8.000,13.999 23.172,13.999 23.172,13.999 C23.172,13.999 -0.000,37.163 -0.000,37.163 C-0.000,37.163 -0.000,39.990 -0.000,39.990 C-0.000,39.990 2.828,39.990 2.828,39.990 C2.828,39.990 26.000,16.826 26.000,16.826 C26.000,16.826 26.000,31.993 26.000,31.993 C26.000,31.993 30.000,31.993 30.000,31.993 C30.000,31.993 30.000,10.000 30.000,10.000 C30.000,10.000 8.000,10.000 8.000,10.000 Z" id="path-3" class="cls-6" fill-rule="evenodd"/>
    </g>
    <path d="M68.000,15.905 C68.000,15.905 63.076,15.905 63.076,15.905 C63.076,15.905 59.904,11.927 59.904,11.927 C59.904,11.927 58.000,11.927 58.000,11.927 C58.000,11.927 58.000,15.905 58.000,15.905 C58.000,15.905 54.000,15.905 54.000,15.905 C54.000,15.905 54.000,-0.007 54.000,-0.007 C54.000,-0.007 60.086,-0.007 60.086,-0.007 C64.559,-0.007 67.081,2.183 67.081,5.958 C67.081,8.259 66.214,9.923 64.264,10.776 C64.264,10.776 68.000,15.569 68.000,15.569 C68.000,15.569 68.000,15.905 68.000,15.905 ZM60.138,7.949 C61.906,7.949 62.894,7.395 62.894,5.999 C62.894,4.551 61.906,3.971 60.138,3.971 C60.138,3.971 58.000,3.971 58.000,3.971 C58.000,3.971 58.000,7.949 58.000,7.949 C58.000,7.949 60.138,7.949 60.138,7.949 ZM69.000,15.905 C69.000,15.905 69.000,-0.007 69.000,-0.007 C69.000,-0.007 81.000,-0.007 81.000,-0.007 C81.000,-0.007 81.000,3.971 81.000,3.971 C81.000,3.971 73.000,3.971 73.000,3.971 C73.000,3.971 73.000,5.960 73.000,5.960 C73.000,5.960 80.000,5.960 80.000,5.960 C80.000,5.960 80.000,9.938 80.000,9.938 C80.000,9.938 73.000,9.938 73.000,9.938 C73.000,9.938 73.000,11.927 73.000,11.927 C73.000,11.927 81.000,11.927 81.000,11.927 C81.000,11.927 81.000,15.905 81.000,15.905 C81.000,15.905 69.000,15.905 69.000,15.905 ZM86.892,15.905 C86.892,15.905 82.342,15.905 82.342,15.905 C82.342,15.905 88.270,-0.007 88.270,-0.007 C88.270,-0.007 94.042,-0.007 94.042,-0.007 C94.042,-0.007 99.944,15.905 99.944,15.905 C99.944,15.905 95.420,15.905 95.420,15.905 C95.420,15.905 94.536,12.921 94.536,12.921 C94.536,12.921 87.776,12.921 87.776,12.921 C87.776,12.921 86.892,15.905 86.892,15.905 ZM91.598,5.229 C91.416,4.660 91.260,4.102 91.156,3.689 C91.026,4.102 90.870,4.706 90.688,5.275 C90.688,5.275 89.102,9.938 89.102,9.938 C89.102,9.938 93.185,9.938 93.185,9.938 C93.185,9.938 91.598,5.229 91.598,5.229 ZM101.000,15.905 C101.000,15.905 101.000,-0.007 101.000,-0.007 C101.000,-0.007 106.000,-0.007 106.000,-0.007 C106.000,-0.007 106.000,11.927 106.000,11.927 C106.000,11.927 113.000,11.927 113.000,11.927 C113.000,11.927 113.000,15.905 113.000,15.905 C113.000,15.905 101.000,15.905 101.000,15.905 ZM115.000,15.905 C115.000,15.905 115.000,-0.007 115.000,-0.007 C115.000,-0.007 119.000,-0.007 119.000,-0.007 C119.000,-0.007 119.000,15.905 119.000,15.905 C119.000,15.905 115.000,15.905 115.000,15.905 ZM121.000,15.905 C121.000,15.905 121.000,12.828 121.000,12.828 C121.000,12.828 129.244,3.862 129.244,3.862 C128.100,3.913 127.010,3.971 125.917,3.971 C125.917,3.971 122.000,3.971 122.000,3.971 C122.000,3.971 122.000,-0.007 122.000,-0.007 C122.000,-0.007 135.000,-0.007 135.000,-0.007 C135.000,-0.007 135.000,3.415 135.000,3.415 C135.000,3.415 127.365,12.131 127.365,12.131 C128.483,12.054 129.584,11.927 130.572,11.927 C130.572,11.927 135.000,11.927 135.000,11.927 C135.000,11.927 135.000,15.905 135.000,15.905 C135.000,15.905 121.000,15.905 121.000,15.905 ZM137.000,15.905 C137.000,15.905 137.000,-0.007 137.000,-0.007 C137.000,-0.007 149.000,-0.007 149.000,-0.007 C149.000,-0.007 149.000,3.971 149.000,3.971 C149.000,3.971 141.000,3.971 141.000,3.971 C141.000,3.971 141.000,5.960 141.000,5.960 C141.000,5.960 148.000,5.960 148.000,5.960 C148.000,5.960 148.000,9.938 148.000,9.938 C148.000,9.938 141.000,9.938 141.000,9.938 C141.000,9.938 141.000,11.927 141.000,11.927 C141.000,11.927 149.000,11.927 149.000,11.927 C149.000,11.927 149.000,15.905 149.000,15.905 C149.000,15.905 137.000,15.905 137.000,15.905 ZM67.471,38.195 C65.183,39.461 63.154,40.004 60.710,40.004 C55.900,40.004 52.884,37.108 52.884,31.911 C52.884,26.688 55.900,23.740 60.970,23.740 C62.973,23.740 65.053,24.206 66.898,25.163 C66.898,25.163 65.624,28.317 65.624,28.317 C63.727,27.774 62.426,27.516 61.178,27.516 C58.552,27.516 57.174,28.989 57.174,31.911 C57.174,34.497 58.656,36.229 60.918,36.229 C62.686,36.229 63.960,35.919 66.093,35.066 C66.093,35.066 67.471,38.195 67.471,38.195 ZM84.189,31.911 C84.189,37.108 81.173,40.004 76.181,40.004 C71.162,40.004 68.146,37.108 68.146,31.911 C68.146,26.688 71.162,23.740 76.181,23.740 C81.173,23.740 84.189,26.688 84.189,31.911 ZM79.898,31.911 C79.898,28.989 78.520,27.516 76.181,27.516 C73.814,27.516 72.436,28.989 72.436,31.911 C72.436,34.756 73.814,36.229 76.181,36.229 C78.520,36.229 79.898,34.756 79.898,31.911 ZM97.007,39.772 C97.007,39.772 90.000,30.877 90.000,30.877 C90.000,30.877 90.000,39.772 90.000,39.772 C90.000,39.772 86.000,39.772 86.000,39.772 C86.000,39.772 86.000,23.860 86.000,23.860 C86.000,23.860 89.909,23.860 89.909,23.860 C89.909,23.860 97.000,32.997 97.000,32.997 C97.000,32.997 97.000,23.860 97.000,23.860 C97.000,23.860 101.000,23.860 101.000,23.860 C101.000,23.860 101.000,39.772 101.000,39.772 C101.000,39.772 97.007,39.772 97.007,39.772 ZM114.687,28.317 C112.243,27.412 110.917,27.128 109.539,27.128 C108.629,27.128 107.875,27.490 107.875,28.162 C107.875,28.886 108.473,29.171 111.879,30.308 C115.103,31.394 116.144,32.583 116.144,35.221 C116.144,38.091 114.037,40.004 110.319,40.004 C108.265,40.004 105.015,39.177 102.831,37.859 C102.831,37.859 104.417,34.574 104.417,34.574 C106.835,35.893 108.551,36.411 110.085,36.411 C111.021,36.411 111.541,36.023 111.541,35.350 C111.541,34.678 111.125,34.419 108.057,33.514 C104.989,32.610 103.533,30.903 103.533,28.472 C103.533,25.783 105.483,23.740 109.071,23.740 C111.099,23.740 113.127,23.999 115.935,25.240 C115.935,25.240 114.687,28.317 114.687,28.317 ZM133.000,32.247 C133.000,37.496 130.375,40.004 125.487,40.004 C120.625,40.004 118.000,37.496 118.000,32.247 C118.000,32.247 118.000,23.860 118.000,23.860 C118.000,23.860 123.000,23.860 123.000,23.860 C123.000,23.860 123.000,32.247 123.000,32.247 C123.000,34.936 124.011,36.229 125.987,36.229 C127.989,36.229 129.000,34.936 129.000,32.247 C129.000,32.247 129.000,23.860 129.000,23.860 C129.000,23.860 133.000,23.860 133.000,23.860 C133.000,23.860 133.000,32.247 133.000,32.247 ZM135.000,39.772 C135.000,39.772 135.000,23.860 135.000,23.860 C135.000,23.860 140.000,23.860 140.000,23.860 C140.000,23.860 140.000,35.794 140.000,35.794 C140.000,35.794 147.000,35.794 147.000,35.794 C147.000,35.794 147.000,39.772 147.000,39.772 C147.000,39.772 135.000,39.772 135.000,39.772 ZM154.000,27.838 C154.000,27.838 154.000,39.772 154.000,39.772 C154.000,39.772 150.000,39.772 150.000,39.772 C150.000,39.772 150.000,27.838 150.000,27.838 C150.000,27.838 145.000,27.838 145.000,27.838 C145.000,27.838 145.000,23.860 145.000,23.860 C145.000,23.860 159.000,23.860 159.000,23.860 C159.000,23.860 159.000,27.838 159.000,27.838 C159.000,27.838 154.000,27.838 154.000,27.838 ZM160.000,39.772 C160.000,39.772 160.000,23.860 160.000,23.860 C160.000,23.860 165.000,23.860 165.000,23.860 C165.000,23.860 165.000,39.772 165.000,39.772 C165.000,39.772 160.000,39.772 160.000,39.772 ZM178.568,39.772 C178.568,39.772 172.000,30.877 172.000,30.877 C172.000,30.877 172.000,39.772 172.000,39.772 C172.000,39.772 168.000,39.772 168.000,39.772 C168.000,39.772 168.000,23.860 168.000,23.860 C168.000,23.860 171.470,23.860 171.470,23.860 C171.470,23.860 178.000,32.997 178.000,32.997 C178.000,32.997 178.000,23.860 178.000,23.860 C178.000,23.860 182.000,23.860 182.000,23.860 C182.000,23.860 182.000,39.772 182.000,39.772 C182.000,39.772 178.568,39.772 178.568,39.772 ZM200.000,38.039 C197.000,39.436 194.783,40.004 192.183,40.004 C187.425,40.004 184.348,37.108 184.348,31.911 C184.348,27.024 187.465,23.740 192.222,23.740 C194.199,23.740 196.836,24.180 199.072,25.163 C199.072,25.163 197.998,28.291 197.998,28.291 C195.996,27.748 194.432,27.412 192.586,27.412 C190.168,27.412 188.580,29.222 188.580,31.911 C188.580,34.756 189.911,36.281 192.199,36.281 C193.473,36.281 195.000,36.204 196.000,35.686 C196.000,35.686 196.000,33.805 196.000,33.805 C196.000,33.805 192.000,33.805 192.000,33.805 C192.000,33.805 192.000,30.822 192.000,30.822 C192.000,30.822 200.000,30.822 200.000,30.822 C200.000,30.822 200.000,38.039 200.000,38.039 Z" id="path-4" class="cls-5" fill-rule="evenodd"/>
  </g>
</svg>
